<?xml version="1.0" encoding="UTF-8" standalone="no"?>
<svg width="600" version="1.1" id="svg5" xml:space="preserve"
  xmlns:xlink="http://www.w3.org/1999/xlink"
  xmlns="http://www.w3.org/2000/svg"
  xmlns:svg="http://www.w3.org/2000/svg">
  <defs id="defs2" />

  <path id="ellipseH" d="M 300 200 C 633.3333333333333 200 633.3333333333333 400 300 400 C -33.333333333333314 400 -33.333333333333314 200 300 200 Z" style="fill:none;stroke:#000000;stroke-width:0.05" />
  <path id="ellipseOppositeH" d="M 300 400 C -33.333333333333314 400 -33.333333333333314 200 300 200 C 633.3333333333333 200 633.3333333333333 400 300 400 Z" style="fill:none;stroke:#000000;stroke-width:0.05" />
  <path id="ellipsePiOver2" d="M 400 300 C 400 633.3333333333333 200.00000000000003 633.3333333333333 200 300 C 199.99999999999997 -33.333333333333314 400 -33.333333333333314 400 300 Z" style="fill:none;stroke:#000000;stroke-width:0.05" />
  <path id="ellipseOppositePiOver2" d="M 200 300 C 199.99999999999997 -33.333333333333314 400 -33.333333333333314 400 300 C 400 633.3333333333333 200.00000000000003 633.3333333333333 200 300 Z" style="fill:none;stroke:#000000;stroke-width:0.05" />
  <path id="ellipsePiOver4" d="M 370.71067811865476 229.28932188134524 C 606.4129385141706 464.99158227686104 464.9915822768611 606.4129385141705 229.28932188134524 370.71067811865476 C -6.412938514170605 135.00841772313896 135.0084177231389 -6.412938514170548 370.71067811865476 229.28932188134524 Z" style="fill:none;stroke:#000000;stroke-width:0.05" />
  <path id="ellipseOppositePiOver4" d="M 229.28932188134524 370.71067811865476 C -6.412938514170605 135.00841772313896 135.0084177231389 -6.412938514170548 370.71067811865476 229.28932188134524 C 606.4129385141706 464.99158227686104 464.9915822768611 606.4129385141705 229.28932188134524 370.71067811865476 Z" style="fill:none;stroke:#000000;stroke-width:0.05" />
  <path id="ellipse3PiOver4" d="M 370.71067811865476 370.71067811865476 C 135.00841772313896 606.4129385141706 -6.412938514170548 464.9915822768611 229.28932188134524 229.28932188134524 C 464.99158227686104 -6.412938514170605 606.4129385141705 135.0084177231389 370.71067811865476 370.71067811865476 Z" style="fill:none;stroke:#000000;stroke-width:0.05" />
  <path id="ellipseOpposite3PiOver4" d="M 229.28932188134524 229.28932188134524 C 464.99158227686104 -6.412938514170605 606.4129385141705 135.0084177231389 370.71067811865476 370.71067811865476 C 135.00841772313896 606.4129385141706 -6.412938514170548 464.9915822768611 229.28932188134524 229.28932188134524 Z" style="fill:none;stroke:#000000;stroke-width:0.05" />

  <g id="CSS">
    <g id="CSS3" transform="matrix(0.125,0,0,0.125,-25,-25)">
      <path id="polygon2989" style="fill:#264de4" d="M 329.688,470.819 181.145,512 33.011,470.877 0,100.62 h 362.734 z" />
      <path id="polygon2991" style="fill:#2965f1" d="m 301.397,447.246 28.24,-316.352 h -148.27 v 349.629 z" />
      <path id="polygon2993" style="fill:#ebebeb" d="m 67.49805,176.30469 4.1289,45.41211 h 109.74024 v -45.41211 h -0.15625 z m 8.17968,91.91211 4.06836,45.41015 h 101.6211 V 268.2168 Z m 6.09766,68.11523 6.36328,71.30274 93.01953,25.82226 0.20899,-0.0586 v -47.2461 l -0.19922,0.0527 -50.57422,-13.6543 -3.23242,-36.21875 h -24.57617 z" />
      <path id="path2999" d="m 85.36719,0 v 69 h 55 V 46 h -32 V 23 h 32 V 0 Z m 66,0 v 45 h 32 v 4 h -32 v 21 h 55 V 24 h -32 v -4 h 32 V 0 Z m 66,0 v 45 h 32 v 4 h -32 v 21 h 55 V 24 h -32 v -4 h 32 V 0 Z" />
      <path id="polygon3005" style="display:inline;fill:#ffffff" d="m 231.857,372.521 -50.647,13.67 v 47.244 l 93.094,-25.801 0.683,-7.672 10.671,-119.551 1.108,-12.194 8.198,-91.912 H 181.21 v 45.411 h 63.988 l -4.132,46.501 H 181.21 v 45.41 h 55.918 z" />
    </g>
    <animateTransform attributeName="transform" type="scale" values="0.25; 1; 0.25;" dur="20s" repeatDur="indefinite"/>
    <animateMotion begin="0s" dur="20s" rotate="0" repeatCount="indefinite" additive="sum">
      <mpath xlink:href="#ellipseH" />
    </animateMotion>
  </g>
  <g id="HTML">
    <g id="HTML5" transform="matrix(0.125,0,0,0.125,-25,-25)">
      <path id="polygon19" style="fill:#e44d26" d="M 362.734,100.62 329.688,470.819 181.145,512 33.011,470.877 0,100.62 Z" />
      <path id="polygon21" style="fill:#f16529" d="m 329.637,130.894 h -148.27 v 349.629 l 120.03,-33.277 z" />
      <path id="polygon23" d="m 67.49805,176.30469 1.08789,12.18359 11.16015,125.13867 h 101.6211 V 268.2168 h -60.08985 l -4.15039,-46.5 h 64.24024 v -45.41211 h -0.15625 z m 14.27734,160.02734 6.36328,71.30274 93.01953,25.82226 0.20899,-0.0586 v -47.2461 l -0.19922,0.0527 -50.57422,-13.6543 -3.23242,-36.21875 h -24.57617 z" style="fill:#ebebeb;fill-opacity:1" />
      <path id="path27" d="M 33.75,0 V 69.044922 H 56.826172 V 45.923828 H 77.9375 v 23.121094 h 23.07617 V 0 H 77.935547 V 22.800781 H 56.826172 V 0 Z m 77.29492,0 v 22.896484 h 20.31641 v 46.148438 h 23.07812 V 22.896484 h 20.32617 V 0 Z m 73.83399,0 v 69.044922 h 22.57812 V 34.822266 l 15.88867,24.548828 h 0.39649 l 15.87695,-24.548828 v 34.222656 h 22.98242 V 0 H 238.5293 L 223.74219,24.259766 208.94141,0 Z m 89.20898,0 v 69.044922 h 55.53516 V 46.222656 H 297.17188 V 0 Z" />
      <path id="polygon35" d="m 181.21094,176.30469 v 28.20508 17.0957 0.11133 h 109.54101 0.14649 l 0.91015,-10.20703 2.07032,-23.02149 1.08593,-12.18359 z m 0,91.91211 v 45.41015 h 55.91797 l -5.27149,58.89453 -50.64648,13.66993 v 47.24414 l 93.09375,-25.80078 0.68164,-7.67188 10.67187,-119.55273 1.10742,-12.19336 H 274.5293 Z" style="fill:#ffffff;fill-opacity:1" />
    </g>
    <animateTransform attributeName="transform" type="scale" values="1; 0.25; 1;" dur="20s" repeatDur="indefinite"/>
    <animateMotion begin="0s" dur="20s" rotate="0" repeatCount="indefinite" additive="sum">
      <mpath xlink:href="#ellipseOppositeH" />
    </animateMotion>
  </g>
  <g id="AnimatedVue" fill="none" fill-rule="nonzero">
    <g id="Vue" transform="matrix(0.25,0,0,0.25,-25,-25)">
      <path d="M 75.491,0 98.16,39.264 120.829,0 H 196.32 L 98.16,170.02 0,0 Z" fill="#41b883" id="path1285" />
      <path d="M 75.491,0 98.16,39.264 120.829,0 h 36.227 L 98.16,102.01 39.264,0 Z" fill="#34495e" id="path1289" />
    </g>
    <animateTransform attributeName="transform" type="scale" values="0.25; 1; 0.25;" dur="20s" repeatDur="indefinite"/>
    <animateMotion begin="0s" dur="20s" rotate="0" repeatCount="indefinite" additive="sum">
      <mpath xlink:href="#ellipsePiOver4" />
    </animateMotion>
  </g>
  <g id="AnimatedNUXT" fill="none" fill-rule="nonzero">
    <g id="NUXT" transform="matrix(0.125,0,0,0.125,-25,-25)">
      <path fill="#00C58E" d="M227.92099 82.07407l-13.6889 23.7037-46.8148-81.08641L23.7037 273.58025h97.3037c0 13.0912 10.61252 23.7037 23.70371 23.7037H23.70371c-8.46771 0-16.29145-4.52017-20.5246-11.85382-4.23315-7.33366-4.23272-16.36849.00114-23.70174L146.89383 12.83951c4.23415-7.33433 12.0596-11.85252 20.5284-11.85252 8.46878 0 16.29423 4.51819 20.52839 11.85252l39.97037 69.23456z"/>
      <path fill="#2F495E" d="M331.6642 261.7284l-90.05432-155.95062-13.6889-23.7037-13.68888 23.7037-90.04445 155.95061c-4.23385 7.33325-4.23428 16.36808-.00113 23.70174 4.23314 7.33365 12.05689 11.85382 20.5246 11.85382h166.4c8.46946 0 16.29644-4.51525 20.532-11.84955 4.23555-7.3343 4.23606-16.37123.00132-23.706h.01976zM144.7111 273.58024L227.921 129.48148l83.19012 144.09877h-166.4z"/>
      <path fill="#108775" d="M396.04938 285.4321c-4.23344 7.33254-12.05656 11.85185-20.52345 11.85185H311.1111c13.0912 0 23.7037-10.6125 23.7037-23.7037h40.66173L260.09877 73.74815l-18.4889 32.02963-13.68888-23.7037L239.5753 61.8963c4.23416-7.33433 12.0596-11.85252 20.5284-11.85252 8.46879 0 16.29423 4.51819 20.52839 11.85252l115.41728 199.8321c4.23426 7.33395 4.23426 16.36975 0 23.7037z"/>
    </g>
    <animateTransform attributeName="transform" type="scale" values="1; 0.25; 1;" dur="20s" repeatDur="indefinite"/>
    <animateMotion begin="0s" dur="20s" rotate="0" repeatCount="indefinite" additive="sum">
      <mpath xlink:href="#ellipse3PiOver4" />
    </animateMotion>
  </g>
  <g id="AnimatedJS" fill="none" fill-rule="nonzero">
    <g id="JS" transform="matrix(0.0625,0,0,0.0625,-12,-12)">
      <path id="rect1821" style="fill:#f7df1e" d="M 0,0 H 630 V 630 H 0 Z" />
      <path id="path1823" style="fill:#000;" d="M 423.2,492.19 C 435.89,512.91 452.4,528.14 481.6,528.14 506.13,528.14 521.8,515.88 521.8,498.94 521.8,478.64 505.7,471.45 478.7,459.64 L 463.9,453.29 C 421.18,435.09 392.8,412.29 392.8,364.09 392.8,319.69 426.63,285.89 479.5,285.89 517.14,285.89 544.2,298.99 563.7,333.29 L 517.6,362.89 C 507.45,344.69 496.5,337.52 479.5,337.52 462.16,337.52 451.17,348.52 451.17,362.89 451.17,380.65 462.17,387.84 487.57,398.84 L 502.37,405.18 C 552.67,426.75 581.07,448.74 581.07,498.18 581.07,551.48 539.2,580.68 482.97,580.68 427.99,580.68 392.47,554.48 375.09,520.14 Z M 214.07,497.32 C 223.37,513.82 231.83,527.77 252.17,527.77 271.62,527.77 283.89,520.16 283.89,490.57 V 289.27 H 343.09 V 491.37 C 343.09,552.67 307.15,580.57 254.69,580.57 207.29,580.57 179.84,556.04 165.88,526.495 Z"/>
    </g>
    <animateTransform attributeName="transform" type="scale" values="1; 0.25; 1;" dur="20s" repeatDur="indefinite"/>
    <animateMotion begin="0s" dur="20s" rotate="0" repeatCount="indefinite" additive="sum">
      <mpath xlink:href="#ellipseOppositePiOver4" />
    </animateMotion>
  </g>
  <g id="AnimatedReact" fill="none" fill-rule="nonzero">
    <g id="React" stroke="#087ea4" stroke-width="2">
      <circle xmlns="http://www.w3.org/2000/svg" cx="0" cy="0" r="4" fill="#087ea4"/>
      <ellipse rx="25" ry="11.25"/>
      <ellipse rx="25" ry="11.25" transform="rotate(60)"/>
      <ellipse rx="25" ry="11.25" transform="rotate(120)"/>
    </g>
    <animateTransform attributeName="transform" type="scale" values="0.5; 1; 0.5;" dur="20s" repeatDur="indefinite"/>
    <animateMotion begin="0s" dur="20s" rotate="0" repeatCount="indefinite" additive="sum">
      <mpath xlink:href="#ellipseOpposite3PiOver4" />
    </animateMotion>
  </g>
  <g id="AnimatedRedux" fill="none" fill-rule="nonzero">
    <g id="Redux" transform="matrix(0.75,0,0,0.75,-37,-37)" fill="#764ABC">
      <path d="M65.6 65.4c2.9-.3 5.1-2.8 5-5.8-.1-3-2.6-5.4-5.6-5.4h-.2c-3.1.1-5.5 2.7-5.4 5.8.1 1.5.7 2.8 1.6 3.7-3.4 6.7-8.6 11.6-16.4 15.7-5.3 2.8-10.8 3.8-16.3 3.1-4.5-.6-8-2.6-10.2-5.9-3.2-4.9-3.5-10.2-.8-15.5 1.9-3.8 4.9-6.6 6.8-8-.4-1.3-1-3.5-1.3-5.1-14.5 10.5-13 24.7-8.6 31.4 3.3 5 10 8.1 17.4 8.1 2 0 4-.2 6-.7 12.8-2.5 22.5-10.1 28-21.4z"/>
      <path d="M83.2 53c-7.6-8.9-18.8-13.8-31.6-13.8H50c-.9-1.8-2.8-3-4.9-3h-.2c-3.1.1-5.5 2.7-5.4 5.8.1 3 2.6 5.4 5.6 5.4h.2c2.2-.1 4.1-1.5 4.9-3.4H52c7.6 0 14.8 2.2 21.3 6.5 5 3.3 8.6 7.6 10.6 12.8 1.7 4.2 1.6 8.3-.2 11.8-2.8 5.3-7.5 8.2-13.7 8.2-4 0-7.8-1.2-9.8-2.1-1.1 1-3.1 2.6-4.5 3.6 4.3 2 8.7 3.1 12.9 3.1 9.6 0 16.7-5.3 19.4-10.6 2.9-5.8 2.7-15.8-4.8-24.3z"/>
      <path d="M32.4 67.1c.1 3 2.6 5.4 5.6 5.4h.2c3.1-.1 5.5-2.7 5.4-5.8-.1-3-2.6-5.4-5.6-5.4h-.2c-.2 0-.5 0-.7.1-4.1-6.8-5.8-14.2-5.2-22.2.4-6 2.4-11.2 5.9-15.5 2.9-3.7 8.5-5.5 12.3-5.6 10.6-.2 15.1 13 15.4 18.3 1.3.3 3.5 1 5 1.5-1.2-16.2-11.2-24.6-20.8-24.6-9 0-17.3 6.5-20.6 16.1-4.6 12.8-1.6 25.1 4 34.8-.5.7-.8 1.8-.7 2.9z"/>
    </g>
    <animateTransform attributeName="transform" type="scale" values="0.75; 0.375; 0.75;" dur="20s" repeatDur="indefinite"/>
    <animateMotion begin="0s" dur="20s" rotate="0" repeatCount="indefinite" additive="sum">
      <mpath xlink:href="#ellipsePiOver2" />
    </animateMotion>
  </g>
  <g id="AnimatedTS" fill="none" fill-rule="nonzero">
    <g id="TS" transform="matrix(0.0625,0,0,0.0625,-12,-12)" fill="#764ABC">
      <rect fill="#3178c6" height="512" rx="50" width="512"/>
      <path clip-rule="evenodd" d="m316.939 407.424v50.061c8.138 4.172 17.763 7.3 28.875 9.386s22.823 3.129 35.135 3.129c11.999 0 23.397-1.147 34.196-3.442 10.799-2.294 20.268-6.075 28.406-11.342 8.138-5.266 14.581-12.15 19.328-20.65s7.121-19.007 7.121-31.522c0-9.074-1.356-17.026-4.069-23.857s-6.625-12.906-11.738-18.225c-5.112-5.319-11.242-10.091-18.389-14.315s-15.207-8.213-24.18-11.967c-6.573-2.712-12.468-5.345-17.685-7.9-5.217-2.556-9.651-5.163-13.303-7.822-3.652-2.66-6.469-5.476-8.451-8.448-1.982-2.973-2.974-6.336-2.974-10.091 0-3.441.887-6.544 2.661-9.308s4.278-5.136 7.512-7.118c3.235-1.981 7.199-3.52 11.894-4.615 4.696-1.095 9.912-1.642 15.651-1.642 4.173 0 8.581.313 13.224.938 4.643.626 9.312 1.591 14.008 2.894 4.695 1.304 9.259 2.947 13.694 4.928 4.434 1.982 8.529 4.276 12.285 6.884v-46.776c-7.616-2.92-15.937-5.084-24.962-6.492s-19.381-2.112-31.066-2.112c-11.895 0-23.163 1.278-33.805 3.833s-20.006 6.544-28.093 11.967c-8.086 5.424-14.476 12.333-19.171 20.729-4.695 8.395-7.043 18.433-7.043 30.114 0 14.914 4.304 27.638 12.912 38.172 8.607 10.533 21.675 19.45 39.204 26.751 6.886 2.816 13.303 5.579 19.25 8.291s11.086 5.528 15.415 8.448c4.33 2.92 7.747 6.101 10.252 9.543 2.504 3.441 3.756 7.352 3.756 11.733 0 3.233-.783 6.231-2.348 8.995s-3.939 5.162-7.121 7.196-7.147 3.624-11.894 4.771c-4.748 1.148-10.303 1.721-16.668 1.721-10.851 0-21.597-1.903-32.24-5.71-10.642-3.806-20.502-9.516-29.579-17.13zm-84.159-123.342h64.22v-41.082h-179v41.082h63.906v182.918h50.874z" fill="#fff" fill-rule="evenodd"/>
    </g>
    <animateTransform attributeName="transform" type="scale" values="0.25; 1; 0.25;" dur="20s" repeatDur="indefinite"/>
    <animateMotion begin="0s" dur="20s" rotate="0" repeatCount="indefinite" additive="sum">
      <mpath xlink:href="#ellipseOppositePiOver2" />
    </animateMotion>
  </g>

</svg>
